<svg width="1140" height="219" viewBox="0 0 1140 219" fill="none" xmlns="http://www.w3.org/2000/svg">
<path d="M109.997 219C78.2691 219 52.0039 208.625 31.2021 187.873C10.4004 167.12 0 141.049 0 109.658C0 78.2667 10.3474 52.1424 31.0444 31.2852C51.7414 10.428 78.0586 0 109.997 0C132.479 0 152.598 5.47697 170.353 16.4322C188.108 27.3874 200.873 42.1354 208.648 60.6751L161.056 85.0091C156.643 74.685 149.815 66.4163 140.569 60.201C131.323 53.9858 120.818 50.8782 109.051 50.8782C93.0826 50.8782 79.7923 56.4613 69.1815 67.6275C58.5707 78.7938 53.2648 92.8037 53.2648 109.658C53.2648 126.301 58.6226 140.259 69.3392 151.53C80.0548 162.802 93.3979 168.438 109.367 168.438C121.134 168.438 131.744 165.277 141.199 158.957C150.655 152.637 157.484 144.104 161.686 133.36L210.539 155.796C202.764 174.968 189.842 190.295 171.772 201.778C153.701 213.26 133.11 219 109.997 219ZM429.588 215.208H371.596L360.879 179.182H284.921L273.889 215.208H215.267L289.964 3.79223H356.467L429.588 215.208ZM298.158 133.36H348.587L323.372 50.246L298.158 133.36ZM636.03 215.208H570.787L535.803 153.901H506.176V215.208H451.335V3.79223H557.865C579.297 3.79223 597 10.7446 610.972 24.6494C624.946 38.5542 631.932 56.1457 631.932 77.425C631.932 92.804 628.412 106.393 621.374 118.191C614.335 129.989 604.617 138.732 592.219 144.42L636.03 215.208ZM546.833 50.8782H506.176V109.342H545.889C554.923 109.342 562.33 106.655 568.108 101.283C573.887 95.9111 576.776 88.9057 576.776 80.2681C576.776 71.8414 573.94 64.8361 568.266 59.2529C562.593 53.6698 555.449 50.8782 546.833 50.8782ZM746.972 218.685C728.482 218.685 710.833 215.841 694.023 210.153C677.213 204.464 662.926 197.196 651.159 188.347L673.537 145.368C695.389 162.434 721.863 170.966 752.962 170.966C762.627 170.966 770.243 169.28 775.811 165.91C781.38 162.539 784.164 157.904 784.164 152.005C784.164 144.209 778.071 138.732 765.884 135.572C762.312 134.729 754.852 133.36 743.506 131.464C734.681 129.988 727.38 128.672 721.601 127.513C715.822 126.355 708.679 124.142 700.169 120.877C691.659 117.612 684.882 113.872 679.84 109.658C674.797 105.444 670.384 99.6513 666.603 92.2778C662.82 84.9033 660.93 76.4767 660.93 66.9957C660.93 45.2965 669.123 28.7581 685.513 17.3808C701.903 6.0046 724.07 0.31645 752.016 0.31645C783.533 0.31645 811.689 7.47887 836.484 21.8058L814.421 63.8362C794.67 52.2489 772.712 46.4546 748.549 46.4546C727.747 46.4546 717.346 52.2489 717.346 63.8362C717.346 66.5747 718.029 68.9441 719.394 70.9466C720.76 72.948 722.336 74.5803 724.123 75.8445C725.908 77.1088 728.64 78.2669 732.316 79.3201C735.995 80.3744 739.094 81.1636 741.615 81.6908C744.136 82.2179 747.813 82.9019 752.646 83.7451C777.86 88.169 795.405 92.5929 805.281 97.0178C829.024 107.552 841.001 124.722 841.211 148.528C841.211 170.861 832.859 188.136 816.155 200.355C799.45 212.575 776.39 218.685 746.972 218.685ZM971.38 145.052L943.014 169.386H1022.12V215.525H865.794V175.391L938.915 109.974C950.682 99.4403 958.036 92.0668 960.978 87.8531C964.76 82.1649 966.652 76.3707 966.652 70.4726C966.652 63.098 964.235 57.1989 959.403 52.7751C954.569 48.3512 948.475 46.1387 941.121 46.1387C933.137 46.1387 926.466 49.1413 921.108 55.1455C915.75 61.1497 912.966 68.9973 912.755 78.6881L862.957 73.3162C863.168 51.4058 870.732 33.7611 885.65 20.3835C900.569 7.00475 919.795 0.31645 943.328 0.31645C966.021 0.31645 984.512 6.63668 998.799 19.2772C1013.09 31.9178 1020.23 48.14 1020.23 67.944C1020.23 76.1607 1018.92 83.9552 1016.29 91.3297C1013.66 98.7032 1009.51 105.814 1003.84 112.661C998.169 119.507 993.284 124.933 989.186 128.935C985.089 132.938 979.153 138.311 971.38 145.052ZM1043.24 16.1163L1104.7 3.79187H1140V215.208H1085.47V55.3024L1043.24 62.5709V16.1163Z" fill="white"/>
</svg>
