<svg width="123" height="104" viewBox="0 0 123 104" fill="none" xmlns="http://www.w3.org/2000/svg">
<g clip-path="url(#clip0_95_1549)">
<rect x="115" y="8" width="88" height="107" rx="12" transform="rotate(90 115 8)" fill="#D2DAE1"/>
<rect x="70.4385" y="-175.238" width="24" height="400" transform="rotate(-24 70.4385 -175.238)" fill="#F3F3F5"/>
<rect x="37.5508" y="-160.596" width="24" height="400" transform="rotate(-24 37.5508 -160.596)" fill="#F3F3F5"/>
<rect x="4.66309" y="-145.953" width="24" height="400" transform="rotate(-24 4.66309 -145.953)" fill="#F3F3F5"/>
<rect x="-28.2246" y="-131.311" width="24" height="400" transform="rotate(-24 -28.2246 -131.311)" fill="#F3F3F5"/>
<rect x="-61.1123" y="-116.668" width="24" height="400" transform="rotate(-24 -61.1123 -116.668)" fill="#F3F3F5"/>
<rect x="-94" y="-102.026" width="24" height="400" transform="rotate(-24 -94 -102.026)" fill="#F3F3F5"/>
</g>
<rect x="119" y="4" width="96" height="115" rx="16" transform="rotate(90 119 4)" stroke="white" stroke-width="8"/>
<defs>
<clipPath id="clip0_95_1549">
<rect x="115" y="8" width="88" height="107" rx="12" transform="rotate(90 115 8)" fill="white"/>
</clipPath>
</defs>
</svg>
