<svg width="40" height="40" viewBox="0 0 40 40" fill="none" xmlns="http://www.w3.org/2000/svg">
<path d="M21.6668 11.6667L19.8076 7.94819C19.2725 6.87801 19.0049 6.34288 18.6058 5.95194C18.2528 5.60622 17.8274 5.34329 17.3603 5.18218C16.8321 5 16.2338 5 15.0373 5H8.66683C6.79999 5 5.86657 5 5.15353 5.36331C4.52632 5.68289 4.01639 6.19282 3.69681 6.82003C3.3335 7.53307 3.3335 8.46649 3.3335 10.3333V11.6667M3.3335 11.6667H28.6668C31.4671 11.6667 32.8672 11.6667 33.9368 12.2116C34.8776 12.691 35.6425 13.4559 36.1219 14.3967C36.6668 15.4663 36.6668 16.8664 36.6668 19.6667V27C36.6668 29.8003 36.6668 31.2004 36.1219 32.27C35.6425 33.2108 34.8776 33.9757 33.9368 34.455C32.8672 35 31.4671 35 28.6668 35H11.3335C8.53323 35 7.1331 35 6.06354 34.455C5.12273 33.9757 4.35783 33.2108 3.87846 32.27C3.3335 31.2004 3.3335 29.8003 3.3335 27V11.6667ZM25.8335 29.1667L23.3335 26.6667M25.0002 22.5C25.0002 25.7217 22.3885 28.3333 19.1668 28.3333C15.9452 28.3333 13.3335 25.7217 13.3335 22.5C13.3335 19.2783 15.9452 16.6667 19.1668 16.6667C22.3885 16.6667 25.0002 19.2783 25.0002 22.5Z" stroke="#0093DD" stroke-width="2" stroke-linecap="round" stroke-linejoin="round"/>
</svg>
