<svg width="40" height="40" viewBox="0 0 40 40" fill="none" xmlns="http://www.w3.org/2000/svg">
<path d="M14.9998 19.1668L18.3332 22.5001L25.8332 15.0001M33.3332 20.0001C33.3332 28.1809 24.4099 34.1308 21.1632 36.0249C20.7942 36.2402 20.6097 36.3478 20.3493 36.4036C20.1472 36.447 19.8524 36.447 19.6504 36.4036C19.39 36.3478 19.2055 36.2402 18.8365 36.0249C15.5898 34.1308 6.6665 28.1809 6.6665 20.0001V12.0294C6.6665 10.6969 6.6665 10.0307 6.88444 9.45795C7.07696 8.95201 7.38981 8.50057 7.79593 8.14266C8.25566 7.73751 8.8795 7.50357 10.1272 7.03569L19.0635 3.68457C19.41 3.55463 19.5832 3.48966 19.7615 3.46391C19.9196 3.44107 20.0801 3.44107 20.2382 3.46391C20.4164 3.48966 20.5897 3.55463 20.9362 3.68457L29.8725 7.03569C31.1202 7.50357 31.744 7.73751 32.2037 8.14266C32.6099 8.50057 32.9227 8.95201 33.1152 9.45795C33.3332 10.0307 33.3332 10.6969 33.3332 12.0294V20.0001Z" stroke="#0093DD" stroke-width="2" stroke-linecap="round" stroke-linejoin="round"/>
</svg>
