<svg width="40" height="40" viewBox="0 0 40 40" fill="none" xmlns="http://www.w3.org/2000/svg">
<path d="M11.6668 36.6668V18.3335M3.3335 21.6668V33.3335C3.3335 35.1744 4.82588 36.6668 6.66683 36.6668H29.0439C31.5118 36.6668 33.6105 34.8663 33.9858 32.4271L35.7806 20.7605C36.2466 17.7317 33.9032 15.0002 30.8388 15.0002H25.0002C24.0797 15.0002 23.3335 14.254 23.3335 13.3335V7.44323C23.3335 5.17349 21.4935 3.3335 19.2238 3.3335C18.6824 3.3335 18.1918 3.65232 17.9719 4.14703L12.1067 17.3437C11.8392 17.9456 11.2424 18.3335 10.5837 18.3335H6.66683C4.82588 18.3335 3.3335 19.8259 3.3335 21.6668Z" stroke="#0093DD" stroke-width="2" stroke-linecap="round" stroke-linejoin="round"/>
</svg>
