<svg width="24" height="24" viewBox="0 0 24 24" fill="none" xmlns="http://www.w3.org/2000/svg">
<path d="M4.9459 11.1157C4.9459 11.1157 11.7696 8.10513 14.1362 7.04504C15.0434 6.62104 18.1199 5.26413 18.1199 5.26413C18.1199 5.26413 19.5399 4.67053 19.4216 6.11219C19.3821 6.70584 19.0666 8.78353 18.751 11.0309C18.2777 14.2111 17.7649 17.688 17.7649 17.688C17.7649 17.688 17.6861 18.6633 17.0155 18.8329C16.345 19.0025 15.2406 18.2393 15.0434 18.0697C14.8856 17.9425 12.0851 16.0344 11.0596 15.1015C10.7835 14.8471 10.468 14.3383 11.099 13.7446C12.519 12.3454 14.215 10.6069 15.2406 9.50442C15.7139 8.99556 16.1872 7.8083 14.215 9.24996C11.4146 11.3277 8.65356 13.2782 8.65356 13.2782C8.65356 13.2782 8.02246 13.7022 6.83917 13.3206C5.65584 12.939 4.27532 12.4302 4.27532 12.4302C4.27532 12.4302 3.32874 11.7941 4.9459 11.1157Z" fill="white"/>
</svg>
