<svg width="216" height="48" viewBox="0 0 216 48" fill="none" xmlns="http://www.w3.org/2000/svg">
<path fill-rule="evenodd" clip-rule="evenodd" d="M23.9919 5.01515e-05C37.2401 5.01515e-05 47.9838 10.7376 47.9838 23.9779C47.9838 36.9673 37.6436 47.5463 24.7428 47.9432L24.7454 47.9446L24.7038 47.9447C24.4673 47.9517 24.2301 47.9561 23.9918 47.9561C23.7917 47.9561 23.5921 47.9534 23.3932 47.9485L5.9658 48L15.0735 42.7183L25.1214 36.8623L27.3092 40.7253C29.0229 39.5712 30.2262 37.1417 28.9499 34.6394L35.878 30.5579C39.3907 28.4684 41.226 24.3384 39.3055 20.2446L35.0759 13.0291C33.192 9.76148 28.3179 8.57091 25.1578 10.3322L17.537 14.8876C15.6409 12.4946 13.7083 12.033 11.5205 13.1748L13.7448 17.0377L0.0225466 24.9831C0.0088367 24.6495 0 24.3149 0 23.9778C0 10.7375 10.744 5.01515e-05 23.9919 5.01515e-05ZM8.82379 42.5538C4.61591 39.1172 1.5959 34.2814 0.477626 28.7572L3.82682 28.0798C5.43698 32.352 7.88298 36.221 10.9007 39.8143L8.82379 42.5538Z" fill="#0093DD"/>
<path fill-rule="evenodd" clip-rule="evenodd" d="M16.7155 21.7943C16.2589 20.992 16.1686 20.9392 16.8805 19.6979L18.6672 17.1469C19.3478 16.1829 20.0936 16.486 20.7092 16.9283C25.4486 20.3246 28.1762 24.7376 28.694 30.2677C28.6879 31.171 28.4817 31.6924 27.4202 31.9955L24.2357 32.5412C23.4557 32.6462 22.9393 32.6239 22.4334 31.8693C21.0568 28.4354 19.1109 25.0827 16.7155 21.7943Z" fill="#0093DD"/>
<path d="M70.6577 39.6871C66.1807 39.6871 62.4744 38.2279 59.5391 35.309C56.6038 32.3902 55.1362 28.7232 55.1362 24.3079C55.1362 19.8927 56.5963 16.2182 59.5169 13.2846C62.4374 10.351 66.151 8.88428 70.6577 8.88428C73.8302 8.88428 76.6691 9.65463 79.1745 11.1955C81.6799 12.7364 83.4811 14.8107 84.5782 17.4184L77.8626 20.841C77.2399 19.3889 76.2764 18.2259 74.9717 17.3517C73.6671 16.4775 72.1847 16.0404 70.5243 16.0404C68.271 16.0404 66.3956 16.8257 64.8983 18.3963C63.4011 19.9668 62.6524 21.9373 62.6524 24.308C62.6524 26.6489 63.4084 28.6121 64.9206 30.1974C66.4326 31.7827 68.3155 32.5755 70.5688 32.5755C72.2292 32.5755 73.7265 32.1309 75.0606 31.242C76.3949 30.353 77.3586 29.1529 77.9515 27.6417L84.8451 30.7974C83.748 33.494 81.9246 35.6498 79.3747 37.2648C76.8248 38.8798 73.9192 39.6871 70.6577 39.6871ZM115.755 39.1538H107.572L106.059 34.0866H95.3411L93.7844 39.1538H85.5122L96.0526 9.41766H105.437L115.755 39.1538ZM97.2089 27.6417H104.325L100.767 15.9515L97.2089 27.6417ZM144.885 39.1538H135.679L130.743 30.5308H126.562V39.1538H118.823V9.41766H133.856C136.88 9.41766 139.378 10.3955 141.35 12.3513C143.321 14.307 144.307 16.7813 144.307 19.7743C144.307 21.9374 143.811 23.8487 142.817 25.5082C141.824 27.1675 140.453 28.3973 138.703 29.1974L144.885 39.1538ZM132.299 16.0404H126.562V24.2635H132.166C133.441 24.2635 134.486 23.8856 135.301 23.13C136.117 22.3744 136.524 21.3891 136.524 20.1742C136.524 18.9889 136.124 18.0036 135.323 17.2183C134.523 16.4331 133.515 16.0404 132.299 16.0404ZM160.54 39.6429C157.931 39.6429 155.441 39.2428 153.069 38.4428C150.697 37.6427 148.681 36.6204 147.02 35.3758L150.178 29.3307C153.262 31.731 156.997 32.931 161.386 32.931C162.749 32.931 163.824 32.694 164.61 32.2199C165.396 31.7458 165.788 31.0939 165.788 30.2641C165.788 29.1677 164.929 28.3973 163.209 27.9527C162.705 27.8343 161.652 27.6417 160.051 27.375C158.806 27.1675 157.776 26.9823 156.96 26.8193C156.145 26.6564 155.137 26.3452 153.936 25.8859C152.735 25.4267 151.779 24.9007 151.067 24.308C150.356 23.7153 149.733 22.9005 149.2 21.8634C148.666 20.8261 148.399 19.6409 148.399 18.3074C148.399 15.2553 149.555 12.9292 151.868 11.3289C154.181 9.72884 157.309 8.92879 161.252 8.92879C165.7 8.92879 169.672 9.9362 173.171 11.9513L170.058 17.863C167.271 16.2332 164.173 15.4182 160.763 15.4182C157.828 15.4182 156.36 16.2332 156.36 17.863C156.36 18.2482 156.456 18.5814 156.649 18.8631C156.842 19.1446 157.064 19.3742 157.316 19.552C157.568 19.7298 157.954 19.8927 158.472 20.0408C158.991 20.1891 159.429 20.3001 159.784 20.3743C160.14 20.4484 160.659 20.5446 161.341 20.6632C164.899 21.2855 167.375 21.9077 168.768 22.5301C172.119 24.0117 173.809 26.4268 173.838 29.7751C173.838 32.9163 172.66 35.3461 170.303 37.0648C167.946 38.7835 164.692 39.6429 160.54 39.6429ZM192.206 29.2862L188.204 32.7089H199.367V39.1983H177.307V33.5534L187.625 24.3524C189.286 22.8708 190.323 21.8337 190.738 21.241C191.272 20.441 191.539 19.626 191.539 18.7964C191.539 17.7592 191.198 16.9294 190.516 16.3072C189.834 15.685 188.974 15.3738 187.937 15.3738C186.81 15.3738 185.868 15.7961 185.112 16.6406C184.356 17.4851 183.964 18.5889 183.934 19.952L176.907 19.1964C176.937 16.1146 178.004 13.6329 180.109 11.7513C182.214 9.86951 184.927 8.92879 188.248 8.92879C191.45 8.92879 194.059 9.81774 196.075 11.5957C198.092 13.3736 199.1 15.6553 199.1 18.4408C199.1 19.5965 198.914 20.6928 198.544 21.73C198.173 22.7671 197.587 23.7672 196.787 24.7303C195.986 25.6933 195.297 26.4564 194.719 27.0194C194.141 27.5824 193.303 28.3381 192.206 29.2862ZM202.346 11.1511L211.019 9.41761H216V39.1538H208.306V16.6627L202.346 17.685V11.1511Z" fill="#1F1A17"/>
</svg>
