<svg width="40" height="40" viewBox="0 0 40 40" fill="none" xmlns="http://www.w3.org/2000/svg">
<circle cx="20" cy="20" r="20" fill="#1F1A17"/>
<path d="M12.9459 19.1157C12.9459 19.1157 19.7696 16.1051 22.1362 15.045C23.0434 14.621 26.1199 13.2641 26.1199 13.2641C26.1199 13.2641 27.5399 12.6705 27.4216 14.1122C27.3821 14.7058 27.0666 16.7835 26.751 19.0309C26.2777 22.2111 25.7649 25.688 25.7649 25.688C25.7649 25.688 25.6861 26.6633 25.0155 26.8329C24.345 27.0025 23.2406 26.2393 23.0434 26.0697C22.8856 25.9425 20.0851 24.0344 19.0596 23.1015C18.7835 22.8471 18.468 22.3383 19.099 21.7446C20.519 20.3454 22.215 18.6069 23.2406 17.5044C23.7139 16.9956 24.1872 15.8083 22.215 17.25C19.4146 19.3277 16.6536 21.2782 16.6536 21.2782C16.6536 21.2782 16.0225 21.7022 14.8392 21.3206C13.6558 20.939 12.2753 20.4302 12.2753 20.4302C12.2753 20.4302 11.3287 19.7941 12.9459 19.1157Z" fill="white"/>
<circle cx="34" cy="6" r="5" fill="url(#paint0_linear_63_200)" stroke="#F3F3F5" stroke-width="2"/>
<defs>
<linearGradient id="paint0_linear_63_200" x1="38" y1="10.6667" x2="30" y2="1.33333" gradientUnits="userSpaceOnUse">
<stop stop-color="#7DBF19"/>
<stop offset="1" stop-color="#A1D027"/>
</linearGradient>
</defs>
</svg>
